<svg xmlns="http://www.w3.org/2000/svg" xmlns:xlink="http://www.w3.org/1999/xlink" width="70" height="70" viewBox="0 0 70 70">
  <defs>
    <clipPath id="clip-path">
      <rect id="Rectangle_109" data-name="Rectangle 109" width="70" height="70" transform="translate(593 1353)" fill="#fff" stroke="#707070" stroke-width="1"/>
    </clipPath>
  </defs>
  <g id="Mask_Group_15" data-name="Mask Group 15" transform="translate(-593 -1353)" clip-path="url(#clip-path)">
    <path id="graduation-hat-02" d="M0,18.356a3.084,3.084,0,0,1,2.24-2Q17.938,11.216,33.565,6a4.476,4.476,0,0,1,2.87,0c10.29,3.395,20.58,6.825,30.87,10.22.14.035.315.1.455.14A3.012,3.012,0,0,1,70,18.356v1.085a3.189,3.189,0,0,1-2.345,1.96c-3.57,1.12-7.14,2.345-10.675,3.5-.245.07-.49.21-.665.245.42,3.325.805,6.58,1.19,9.835,2.1-.77,4.165-1.47,6.23-2.275a3.283,3.283,0,0,1,3.29.455,6.372,6.372,0,0,1,2.135,2.765c.35.84.56,1.715.84,2.59v1.925c-.105.28-.175.56-.28.8a3.119,3.119,0,0,1-1.925,2c-.98.35-1.925.7-2.905,1.05a1.046,1.046,0,0,1-1.435-.525c-.245-.6.035-1.12.735-1.4.91-.35,1.785-.665,2.695-.98a1.376,1.376,0,0,0,.945-1.05,6.044,6.044,0,0,0-2.065-5.53,1.454,1.454,0,0,0-1.12-.21c-3.29,1.155-6.545,2.345-9.8,3.535a2.143,2.143,0,0,0-.21.14,8.791,8.791,0,0,1,2.38,6.685c.875-.315,1.715-.63,2.555-.91.77-.28,1.33-.07,1.54.525.21.63-.07,1.12-.84,1.4-.42.175-.84.315-1.085.42a22.78,22.78,0,0,1,2.415,2.45c.945,1.26.525,2.38-.98,2.94-1.33.49-2.695.98-4.025,1.47a1.8,1.8,0,0,1-2.66-1.19,8.126,8.126,0,0,0-.77-1.435,2.215,2.215,0,0,0-3.01-.945l-11.235,4.1c-1.3.49-2.625.91-3.92,1.435a3.309,3.309,0,0,1-3.78-.735,8.3,8.3,0,0,1-2.52-5.04c-.035-.175-.035-.35-.07-.595-1.4-.28-2.8-.56-4.27-.875V48.7c.035,1.05.07,2.1.07,3.15a1.718,1.718,0,0,1-1.47,1.89,12.536,12.536,0,0,1-5.81,0,1.747,1.747,0,0,1-1.54-1.96c.07-2.1.14-4.2.245-6.265a.974.974,0,0,0-.6-1.12,19.188,19.188,0,0,1-1.82-1.085,2.519,2.519,0,0,1-1.155-2.2c.07-1.995.14-3.99.245-6.02a1,1,0,0,1,1.085-1.05,1.034,1.034,0,0,1,.945,1.19c-.07,1.715-.1,3.43-.245,5.11a1.577,1.577,0,0,0,.945,1.75c.245.1.455.28.735.42.245-1.54.525-3.045.77-4.515a2.137,2.137,0,0,1,.105-.455,2.814,2.814,0,0,0-.315-2.66,3.7,3.7,0,0,1,1.855-5.25.791.791,0,0,0,.56-.84c0-1.925,0-1.925-1.82-2.52-.455-.14-.91-.28-1.47-.455-.175,1.26-.385,2.485-.56,3.71-.07.35-.07.735-.14,1.085a1.029,1.029,0,1,1-2.03-.28c.21-1.68.49-3.4.735-5.145-.21-.07-.455-.21-.7-.28-3.535-1.12-7.1-2.345-10.71-3.5A3.174,3.174,0,0,1,0,19.476Zm22.435,7.49a2.018,2.018,0,0,1,.315.175c3.85,1.26,7.665,2.555,11.55,3.78a2.751,2.751,0,0,0,1.505-.035c1.54-.455,3.08-.98,4.62-1.505,1.12-.385,2.24-.805,3.36-1.085a1.387,1.387,0,0,1,1.155.28,1.035,1.035,0,0,1,.14,1.015,1.559,1.559,0,0,1-.875.665c-2.59.875-5.215,1.75-7.84,2.625a4.251,4.251,0,0,1-2.94-.07c-3.885-1.295-7.77-2.59-11.655-3.85q-.315-.1-.735-.21a8.991,8.991,0,0,0,.035,1.4.826.826,0,0,0,.385.56,3.874,3.874,0,0,1,1.575,6.055.968.968,0,0,0-.175.735,52.536,52.536,0,0,1,1.33,9.03.673.673,0,0,0,.385.525c1.3.315,2.625.6,3.92.84a.51.51,0,0,0,.455-.245,3.682,3.682,0,0,1,2.31-1.96c7.84-2.835,15.68-5.705,23.52-8.54a.683.683,0,0,0,.56-.805c-.175-1.645-.28-3.255-.49-4.9-.175-1.47-.42-2.94-.63-4.48-1.015.315-1.89.63-2.8.91-.875.28-1.715.595-2.59.84a1.03,1.03,0,0,1-1.33-.665,1,1,0,0,1,.7-1.295,1.706,1.706,0,0,0,.385-.14c4.515-1.505,9.03-2.975,13.545-4.48,1.785-.595,3.535-1.155,5.32-1.785.175-.07.315-.28.455-.42a5.383,5.383,0,0,0-.455-.42c-.07-.07-.175-.07-.245-.105-10.4-3.43-20.755-6.86-31.15-10.325a3.193,3.193,0,0,0-2.135,0C25.445,10.8,16.94,13.561,8.47,16.4c-1.96.63-3.885,1.26-5.81,1.925-.245.07-.42.315-.63.455l.63.525c.035.035.14.035.175.07,5.285,1.75,10.535,3.465,15.785,5.25a2.214,2.214,0,0,0,2.275-.315c2.975-2.03,5.985-3.99,8.96-5.985.21-.14.455-.42.42-.63a3.078,3.078,0,0,1,1.47-3.08,5.8,5.8,0,0,1,6.265,0,2.994,2.994,0,0,1,1.47,2.905,2.711,2.711,0,0,1-2.24,2.31,8.765,8.765,0,0,1-5.11-.1.869.869,0,0,0-.665.035C28.525,21.786,25.515,23.781,22.435,25.846Zm14.07,26.635c.315-.1.6-.175.84-.245,3.955-1.435,7.91-2.9,11.865-4.305a1.362,1.362,0,0,0,1.05-1.26,6.047,6.047,0,0,0-1.925-5.25,1.372,1.372,0,0,0-1.575-.28c-3.115,1.19-6.265,2.31-9.415,3.43-1.085.385-2.17.77-3.29,1.19A8.851,8.851,0,0,1,36.505,52.481ZM19.145,37.046a65.6,65.6,0,0,0-1.47,14.805,9.8,9.8,0,0,0,4.725-.035,69.338,69.338,0,0,0-1.47-14.77ZM52.36,46.741c.595-.21,1.05-.42,1.575-.56a1.221,1.221,0,0,0,.98-1.085,5.906,5.906,0,0,0-2.03-5.46,1.324,1.324,0,0,0-.98-.315,17.038,17.038,0,0,0-1.995.7A8.663,8.663,0,0,1,52.36,46.741ZM34.475,51.676a6.077,6.077,0,0,0-1.96-4.445,1.486,1.486,0,0,0-1.19-.385c-.28.105-.525.665-.56,1.05a5.831,5.831,0,0,0,1.4,4.62c.42.525.91,1.155,1.61.91C34.51,53.216,34.405,52.376,34.475,51.676Zm25.34-1.715c-1.225-1.82-4.165-2.52-5.775-1.54.63.98,1.26,1.925,1.96,2.94C57.225,50.906,58.485,50.451,59.815,49.961Zm-39.8-14.91a1.82,1.82,0,1,0-1.82-1.82A1.877,1.877,0,0,0,20.02,35.051ZM34.93,18.216a18.569,18.569,0,0,0,2.1-.42c.63-.21.7-.63.28-1.12a3.56,3.56,0,0,0-4.655,0c-.385.455-.35.875.245,1.085C33.565,17.971,34.265,18.076,34.93,18.216Z" transform="translate(593 1357.362)" fill="#fff"/>
  </g>
</svg>
