<svg xmlns="http://www.w3.org/2000/svg" xmlns:xlink="http://www.w3.org/1999/xlink" width="14" height="14" viewBox="0 0 14 14">
  <defs>
    <clipPath id="clip-path">
      <rect id="Rectangle_154" data-name="Rectangle 154" width="14" height="14" transform="translate(474 1921)" fill="#0c213a" stroke="#707070" stroke-width="1"/>
    </clipPath>
  </defs>
  <g id="Mask_Group_16" data-name="Mask Group 16" transform="translate(-474 -1921)" clip-path="url(#clip-path)">
    <g id="mail" transform="translate(474 1921)">
      <g id="Group_49" data-name="Group 49">
        <g id="Group_48" data-name="Group 48">
          <path id="Path_7" data-name="Path 7" d="M13.877,2.781,9.631,7l4.246,4.219A1.216,1.216,0,0,0,14,10.691V3.309A1.216,1.216,0,0,0,13.877,2.781Z" fill="#0c213a"/>
        </g>
      </g>
      <g id="Group_51" data-name="Group 51">
        <g id="Group_50" data-name="Group 50">
          <path id="Path_8" data-name="Path 8" d="M12.77,2.078H1.23A1.216,1.216,0,0,0,.7,2.2L6.13,7.6a1.231,1.231,0,0,0,1.74,0L13.3,2.2A1.216,1.216,0,0,0,12.77,2.078Z" fill="#0c213a"/>
        </g>
      </g>
      <g id="Group_53" data-name="Group 53">
        <g id="Group_52" data-name="Group 52">
          <path id="Path_9" data-name="Path 9" d="M.123,2.781A1.216,1.216,0,0,0,0,3.309v7.383a1.216,1.216,0,0,0,.123.527L4.369,7Z" fill="#0c213a"/>
        </g>
      </g>
      <g id="Group_55" data-name="Group 55">
        <g id="Group_54" data-name="Group 54">
          <path id="Path_10" data-name="Path 10" d="M9.051,7.58l-.6.6a2.053,2.053,0,0,1-2.9,0l-.6-.6L.7,11.8a1.216,1.216,0,0,0,.527.123H12.77A1.216,1.216,0,0,0,13.3,11.8Z" fill="#0c213a"/>
        </g>
      </g>
    </g>
  </g>
</svg>
