<svg xmlns="http://www.w3.org/2000/svg" width="14" height="14" viewBox="0 0 14 14">
    <defs>
        <clipPath id="ty3d9af9va">
            <path data-name="Rectangle 6410" transform="translate(623 179)" style="stroke:#707070;fill:#fff" d="M0 0h14v14H0z"/>
        </clipPath>
    </defs>
    <g data-name="Mask Group 194" transform="translate(-623 -179)" style="clip-path:url(#ty3d9af9va)">
        <g data-name="Online Learning">
            <path data-name="Path 13962" d="M0 17.332a1.232 1.232 0 0 0 1.23 1.23h4.38l-.546 1.668H3.719a.41.41 0 1 0 0 .82h6.562a.41.41 0 1 0 0-.82H8.936l-.547-1.668h4.38A1.232 1.232 0 0 0 14 17.332v-.41H0zm0 0" transform="translate(623 171.949)" style="fill:#fff"/>
            <path data-name="Path 13963" d="M8.484 7.527a3.23 3.23 0 0 1 1.641.412V4.807a2.411 2.411 0 0 0-1.641-.588zm0 0" transform="translate(619.465 177.242)" style="fill:#fff"/>
            <path data-name="Path 13964" d="M12.7 7.956a3.2 3.2 0 0 1 1.641-.428V4.219a2.4 2.4 0 0 0-1.641.6zm0 0" transform="translate(617.707 177.242)" style="fill:#fff"/>
            <path data-name="Path 13965" d="M12.77 0H1.23A1.232 1.232 0 0 0 0 1.23v7.82h14V1.23A1.232 1.232 0 0 0 12.77 0zm-2.9 6.18c0 .471-.448.41-.891.41a2.407 2.407 0 0 0-1.69.7.41.41 0 0 1-.58 0 2.407 2.407 0 0 0-1.69-.7c-.443 0-.891.061-.891-.41V2.051c0-.472.448-.41.891-.41a3.223 3.223 0 0 1 1.98.7 3.223 3.223 0 0 1 1.98-.7c.443 0 .891-.061.891.41zm0 0" transform="translate(623 179)" style="fill:#fff"/>
        </g>
    </g>
</svg>
