<svg xmlns="http://www.w3.org/2000/svg" xmlns:xlink="http://www.w3.org/1999/xlink" width="14" height="14" viewBox="0 0 14 14">
  <defs>
    <clipPath id="clip-path">
      <rect id="Rectangle_153" data-name="Rectangle 153" width="14" height="14" transform="translate(473 1897)" fill="#0c213a" stroke="#707070" stroke-width="1"/>
    </clipPath>
  </defs>
  <g id="Mask_Group_17" data-name="Mask Group 17" transform="translate(-473 -1897)" clip-path="url(#clip-path)">
    <g id="telephone" transform="translate(473 1897)">
      <g id="Group_56" data-name="Group 56">
        <path id="Path_11" data-name="Path 11" d="M10.644,9.261a.981.981,0,0,0-1.483,0c-.347.344-.693.688-1.034,1.037a.2.2,0,0,1-.285.052c-.224-.122-.463-.221-.679-.355A10.755,10.755,0,0,1,4.57,7.636,6.143,6.143,0,0,1,3.64,6.147a.213.213,0,0,1,.052-.274c.347-.335.685-.679,1.025-1.023a.985.985,0,0,0,0-1.518c-.271-.274-.542-.542-.813-.816s-.556-.562-.839-.839a.987.987,0,0,0-1.483,0c-.35.344-.685.7-1.04,1.034A1.688,1.688,0,0,0,.01,3.854,4.826,4.826,0,0,0,.383,5.931a12.622,12.622,0,0,0,2.24,3.732,13.864,13.864,0,0,0,4.591,3.592A6.64,6.64,0,0,0,9.758,14a1.864,1.864,0,0,0,1.6-.609c.3-.332.632-.635.947-.953a.991.991,0,0,0,.006-1.509Q11.48,10.09,10.644,9.261Z" fill="#0c213a"/>
        <path id="Path_12" data-name="Path 12" d="M10.087,6.939l1.075-.184A4.825,4.825,0,0,0,7.081,2.8L6.929,3.878a3.729,3.729,0,0,1,3.158,3.062Z" fill="#0c213a"/>
        <path id="Path_13" data-name="Path 13" d="M11.768,2.267A7.927,7.927,0,0,0,7.224,0L7.072,1.081a6.917,6.917,0,0,1,5.853,5.672L14,6.569A7.985,7.985,0,0,0,11.768,2.267Z" fill="#0c213a"/>
      </g>
    </g>
  </g>
</svg>
