<svg xmlns="http://www.w3.org/2000/svg" width="14" height="14" viewBox="0 0 14 14">
    <defs>
        <clipPath id="fyt3zpks6a">
            <path data-name="Rectangle 6410" transform="translate(1063 179)" style="stroke:#707070;fill:#fff" d="M0 0h14v14H0z"/>
        </clipPath>
    </defs>
    <g data-name="Mask Group 192" transform="translate(-1063 -179)" style="clip-path:url(#fyt3zpks6a)">
        <g data-name="Group 12788">
            <g data-name="Group 12787">
                <path data-name="Path 13958" d="M7 0a7 7 0 1 0 7 7 7.027 7.027 0 0 0-7-7zm0 11.512a.82.82 0 1 1 .82-.82.821.821 0 0 1-.82.82zm1.454-4.578a1.373 1.373 0 0 0-.633 1.08v1.037H6.18V8.015a3 3 0 0 1 1.3-2.4.82.82 0 1 0-1.3-.662H4.539a2.461 2.461 0 1 1 3.915 1.981z" style="fill:#fff" transform="translate(1063 179)"/>
            </g>
        </g>
    </g>
</svg>
