<svg xmlns="http://www.w3.org/2000/svg" xmlns:xlink="http://www.w3.org/1999/xlink" width="70" height="70" viewBox="0 0 70 70">
  <defs>
    <clipPath id="clip-path">
      <rect id="Rectangle_82" data-name="Rectangle 82" width="70" height="70" transform="translate(0)" fill="#6a3407"/>
    </clipPath>
  </defs>
  <g id="Mask_Group_11" data-name="Mask Group 11" transform="translate(0)" clip-path="url(#clip-path)">
    <g id="download_5_" data-name="download (5)" transform="translate(0.281)">
      <g id="execution">
        <path id="Path_80" data-name="Path 80" d="M150,51.333a4.667,4.667,0,1,0,4.667-4.667A4.667,4.667,0,0,0,150,51.333ZM154.667,49a2.333,2.333,0,1,1-2.333,2.333A2.333,2.333,0,0,1,154.667,49Z" transform="translate(-99.833 -32.667)" fill="#6a3407"/>
        <path id="Path_81" data-name="Path 81" d="M26.667,116.667H67.5V119H26.667Z" transform="translate(-19.667 -78.167)" fill="#6a3407"/>
        <path id="Path_82" data-name="Path 82" d="M75.5,62.667a4.667,4.667,0,1,1,0-9.333A1.167,1.167,0,0,0,75.5,51h-7a4.667,4.667,0,0,1,0-9.333,1.167,1.167,0,0,0,0-2.333H62.667V37h1.167a1.167,1.167,0,0,0,1.132-.887l.373-1.505,1.342.805a1.183,1.183,0,0,0,1.423-.175l3.3-3.3A1.2,1.2,0,0,0,71.58,30.5l-.805-1.33,1.5-.373a1.167,1.167,0,0,0,.887-1.132V23a1.167,1.167,0,0,0-.887-1.132l-1.5-.373.8-1.342a1.183,1.183,0,0,0-.175-1.423l-3.3-3.3a1.183,1.183,0,0,0-1.423-.175l-1.342.8-.373-1.5a1.167,1.167,0,0,0-1.132-.887H62.667v-3.5a3.511,3.511,0,0,0-3.5-3.5h-35a3.51,3.51,0,0,0-3.5,3.5V39.333H16a7,7,0,0,0,0,14h1.8a6.959,6.959,0,0,0,0,9.333h-4.13a7,7,0,1,0,0,14h52.5a1.167,1.167,0,0,0,0-2.333,4.667,4.667,0,1,1,0-9.333H75.5a1.167,1.167,0,0,0,0-2.333ZM62.923,16l.537,2.147a1.219,1.219,0,0,0,.688.805,1.194,1.194,0,0,0,1.05-.082l1.89-1.143,2.018,2.018-1.143,1.89a1.167,1.167,0,0,0,.723,1.738l2.147.537v2.847l-2.147.537a1.167,1.167,0,0,0-.723,1.738l1.143,1.89L67.088,32.94,65.2,31.8a1.194,1.194,0,0,0-1.05-.082,1.219,1.219,0,0,0-.688.805l-.537,2.147H60.077L59.54,32.52a1.219,1.219,0,0,0-.688-.805,1.194,1.194,0,0,0-1.05.082l-1.89,1.143-2.018-2.018,1.143-1.89a1.167,1.167,0,0,0-.723-1.738l-2.147-.537V23.91l2.147-.537a1.167,1.167,0,0,0,.723-1.738l-1.143-1.89,2.018-2.018L57.8,18.87a1.194,1.194,0,0,0,1.05.082,1.219,1.219,0,0,0,.688-.8L60.077,16ZM30,9H53.333v1.167a1.167,1.167,0,0,1-1.167,1.167h-21A1.167,1.167,0,0,1,30,10.167Zm-7,1.167A1.167,1.167,0,0,1,24.167,9h3.5v1.167a3.51,3.51,0,0,0,3.5,3.5h21a3.511,3.511,0,0,0,3.5-3.5V9h3.5a1.167,1.167,0,0,1,1.167,1.167v3.5H59.167a1.167,1.167,0,0,0-1.132.887l-.373,1.505-1.342-.8a1.183,1.183,0,0,0-1.423.175l-3.3,3.3a1.183,1.183,0,0,0-.175,1.423l.8,1.342-1.5.373A1.167,1.167,0,0,0,49.833,23v4.667A1.167,1.167,0,0,0,50.72,28.8l1.5.373-.8,1.33a1.2,1.2,0,0,0,.175,1.435l3.3,3.3a1.183,1.183,0,0,0,1.423.175l1.342-.805.373,1.505A1.167,1.167,0,0,0,59.167,37h1.167v2.333H23ZM16,51a4.667,4.667,0,1,1,0-9.333H63.285a6.993,6.993,0,0,0,0,9.333ZM60.952,74.333H13.667a4.667,4.667,0,0,1,0-9.333H60.952a6.993,6.993,0,0,0,0,9.333Zm9.333-11.667H23a4.667,4.667,0,1,1,0-9.333H70.285A6.993,6.993,0,0,0,70.285,62.667Z" transform="translate(-6.667 -6.667)" fill="#6a3407"/>
        <path id="Path_83" data-name="Path 83" d="M150,116.667h2.333V119H150Z" transform="translate(-99.833 -78.167)" fill="#6a3407"/>
        <path id="Path_84" data-name="Path 84" d="M20,183.333H60.833v2.333H20Z" transform="translate(-15.333 -121.5)" fill="#6a3407"/>
        <path id="Path_85" data-name="Path 85" d="M143.333,183.333h2.333v2.333h-2.333Z" transform="translate(-95.5 -121.5)" fill="#6a3407"/>
        <path id="Path_86" data-name="Path 86" d="M60,150h40.833v2.333H60Z" transform="translate(-41.333 -99.833)" fill="#6a3407"/>
        <path id="Path_87" data-name="Path 87" d="M46.667,150H49v2.333H46.667Z" transform="translate(-32.667 -99.833)" fill="#6a3407"/>
        <path id="Path_88" data-name="Path 88" d="M73.333,56.667h2.333V59H73.333Z" transform="translate(-50 -39.167)" fill="#6a3407"/>
        <path id="Path_89" data-name="Path 89" d="M86.667,56.667H98.333V59H86.667Z" transform="translate(-58.667 -39.167)" fill="#6a3407"/>
        <path id="Path_90" data-name="Path 90" d="M73.333,43.333H78v2.333H73.333Z" transform="translate(-50 -30.5)" fill="#6a3407"/>
        <path id="Path_91" data-name="Path 91" d="M93.333,43.333h9.333v2.333H93.333Z" transform="translate(-63 -30.5)" fill="#6a3407"/>
        <path id="Path_92" data-name="Path 92" d="M73.333,70h9.333v2.333H73.333Z" transform="translate(-50 -47.833)" fill="#6a3407"/>
        <path id="Path_93" data-name="Path 93" d="M106.667,70h4.667v2.333h-4.667Z" transform="translate(-71.667 -47.833)" fill="#6a3407"/>
      </g>
    </g>
  </g>
</svg>
