<svg xmlns="http://www.w3.org/2000/svg" xmlns:xlink="http://www.w3.org/1999/xlink" width="70" height="70" viewBox="0 0 70 70">
  <defs>
    <clipPath id="clip-path">
      <rect id="Rectangle_107" data-name="Rectangle 107" width="70" height="70" transform="translate(280 1353)" fill="#fff" stroke="#707070" stroke-width="1"/>
    </clipPath>
  </defs>
  <g id="Mask_Group_14" data-name="Mask Group 14" transform="translate(-280 -1353)" clip-path="url(#clip-path)">
    <g id="abc-block" transform="translate(281.646 1353)">
      <path id="Path_96" data-name="Path 96" d="M4.515,54.585a2.982,2.982,0,0,1-1.921-3.162c.03-7.988.015-15.991.015-23.979,0-2.088.908-3,3-3h24.13c2.133,0,3.026.908,3.026,3.041,0,7.943-.015,15.9.015,23.843,0,1.513-.424,2.663-1.891,3.268Q17.722,54.577,4.515,54.585Zm.923-2.814H29.931V27.247H5.438C5.438,35.417,5.438,43.556,5.438,51.771Z" transform="translate(-2.594 15.4)" fill="#fff"/>
      <path id="Path_97" data-name="Path 97" d="M47.714,27.592A2.6,2.6,0,0,1,45.929,30c-2.239.893-4.478,1.77-6.732,2.663L23.13,38.969c-1.936.756-3.147.242-3.9-1.679q-4.448-11.256-8.9-22.527c-.772-1.967-.257-3.162,1.71-3.933Q23.364,6.4,34.628,1.994c1.861-.726,3.086-.212,3.812,1.634Q42.911,15,47.351,26.367C47.5,26.76,47.593,27.184,47.714,27.592ZM35.808,4.551C28.153,7.562,20.543,10.557,12.9,13.568c3.011,7.67,5.991,15.25,9,22.89,7.67-3.011,15.265-5.991,22.89-9C41.8,19.816,38.818,12.221,35.808,4.551Z" transform="translate(2.952 -1.678)" fill="#fff"/>
      <path id="Path_98" data-name="Path 98" d="M20.316,47.234c.03-.182.091-.514.182-.847q3.132-11.8,6.278-23.6a2.547,2.547,0,0,1,3.465-2.012q11.846,3.132,23.677,6.294a2.468,2.468,0,0,1,1.967,3.3q-3.154,12.027-6.339,24.04a2.467,2.467,0,0,1-3.3,1.876Q34.31,53.127,22.374,49.942A2.552,2.552,0,0,1,20.316,47.234Zm26.6,6.218c2.118-7.943,4.206-15.795,6.309-23.692-7.988-2.118-15.855-4.221-23.767-6.324-2.118,7.988-4.221,15.84-6.324,23.767C31.088,49.307,38.955,51.364,46.913,53.452Z" transform="translate(10.698 12.539)" fill="#fff"/>
      <path id="Path_99" data-name="Path 99" d="M17.3,35.332a8.162,8.162,0,0,1,1.135.605A3.492,3.492,0,0,1,19.839,39.8a3.423,3.423,0,0,1-3.132,2.9c-2.436.242-4.9.257-7.353.3A1.363,1.363,0,0,1,7.993,41.49c-.015-3.8-.015-7.61,0-11.407a1.414,1.414,0,0,1,1.5-1.528c2.133,0,4.281,0,6.415.121a3.481,3.481,0,0,1,3.268,2.738,3.4,3.4,0,0,1-1.815,3.828A.927.927,0,0,1,17.3,35.332Zm-6.354,5.386c1.392,0,2.769.091,4.115-.03a1.89,1.89,0,0,0,1.921-1.982,1.8,1.8,0,0,0-1.846-1.967c-1.362-.136-2.753-.03-4.206-.03C10.943,38.025,10.943,39.387,10.943,40.718Zm.015-6.218c1.362-.076,2.723-.091,4.07-.242a1.664,1.664,0,0,0,1.362-1.785,1.308,1.308,0,0,0-1.316-1.452c-1.331-.182-2.693-.227-4.115-.333Z" transform="translate(1.448 18.48)" fill="#fff"/>
      <path id="Path_100" data-name="Path 100" d="M18.317,16.281V10.2a2.058,2.058,0,0,1,3.465-1.528c.469.454.938.938,1.392,1.407q3.222,3.381,6.445,6.793a9.974,9.974,0,0,1,.983,1.135,1.3,1.3,0,0,1-.091,1.891,1.239,1.239,0,0,1-1.831-.136,23.6,23.6,0,0,1-1.725-1.755.663.663,0,0,0-.877-.212c-1.467.605-2.95,1.2-4.448,1.755a.744.744,0,0,0-.56.862c.03.817.015,1.634-.03,2.451a1.226,1.226,0,0,1-1.225,1.286,1.3,1.3,0,0,1-1.407-1.1,9.78,9.78,0,0,1-.121-1.634c-.015-1.71,0-3.419,0-5.129Zm6.672-.454c-1.422-1.589-2.753-3.071-4.085-4.554v6.157C22.327,16.871,23.6,16.372,24.989,15.827Z" transform="translate(9.172 3.128)" fill="#fff"/>
      <path id="Path_101" data-name="Path 101" d="M26.878,33.9a8.291,8.291,0,0,1,3.389-6.536c3.222-2.224,8.275-.877,9.819,2.617a5.4,5.4,0,0,1,.348,1.846,1.227,1.227,0,0,1-1.074,1.3,1.251,1.251,0,0,1-1.407-.923,13.784,13.784,0,0,0-.832-2.073,3.483,3.483,0,0,0-5.235-.635,7.549,7.549,0,0,0-2.058,6.4c.136,1.5,1.21,2.254,2.617,2.6a3.4,3.4,0,0,0,3.6-1.029c.242-.272.454-.575.681-.847a1.125,1.125,0,0,1,1.528-.272,1.185,1.185,0,0,1,.56,1.513,4.729,4.729,0,0,1-4.039,3.253,6.958,6.958,0,0,1-6.6-2.481A6.887,6.887,0,0,1,26.878,33.9Z" transform="translate(15.619 16.776)" fill="#fff"/>
    </g>
  </g>
</svg>
