<svg xmlns="http://www.w3.org/2000/svg" xmlns:xlink="http://www.w3.org/1999/xlink" width="70" height="70" viewBox="0 0 70 70">
  <defs>
    <clipPath id="clip-path">
      <rect id="Rectangle_108" data-name="Rectangle 108" width="70" height="70" transform="translate(440 1353)" fill="#fff" stroke="#707070" stroke-width="1"/>
    </clipPath>
  </defs>
  <g id="Mask_Group_17" data-name="Mask Group 17" transform="translate(-440 -1353)" clip-path="url(#clip-path)">
    <g id="archive" transform="translate(440.018 1353)">
      <path id="Path_105" data-name="Path 105" d="M34.3,70H21.175c-.77-.315-1.5-.63-2.275-.945-.665.315-1.4.63-2.1.945H3.675a12.128,12.128,0,0,1-1.925-.91A4.566,4.566,0,0,1,0,66.29V21.035c.035-.07.105-.14.14-.21A4.346,4.346,0,0,1,4.62,17.5H17.5V4.445A4.4,4.4,0,0,1,20.615.175,2.141,2.141,0,0,0,21.035,0H34.3c3.36.98,3.885,3.57,3.535,6.615.28-.07.385-.07.49-.1,3.71-.98,7.42-1.995,11.13-2.975A4.356,4.356,0,0,1,55.16,6.79Q61.722,31.36,68.32,55.9c.525,1.96,1.085,3.92,1.645,5.88V63.28A4.924,4.924,0,0,1,65.8,67.06c-1.295.28-2.555.665-3.815,1.015l-6.93,1.89H53.55c-2.205-.6-3.255-2.135-3.78-4.27-.63-2.765-1.435-5.495-2.17-8.225L38.885,24.92c-.28-1.12-.6-2.2-.91-3.325a.129.129,0,0,0-.1.035V65.8a4.332,4.332,0,0,1-2.94,3.955C34.72,69.825,34.51,69.93,34.3,70ZM20.44,58.345V65.2c0,1.47.455,1.925,1.925,1.925H33.04c1.47,0,1.96-.49,1.96-1.96V4.9c0-1.47-.49-1.96-1.96-1.96H22.505c-1.645,0-2.1.455-2.1,2.1,0,11.585.035,23.135.035,34.72V55.44h6.79a3,3,0,0,1,.805.07,1.382,1.382,0,0,1,1.085,1.365,1.359,1.359,0,0,1-1.085,1.4,3.694,3.694,0,0,1-.875.07Zm30.66.6c.035.21.035.35.07.525.56,2.1,1.12,4.165,1.68,6.265a1.51,1.51,0,0,0,2.135,1.225l10.6-2.835c1.26-.35,1.645-.98,1.295-2.24Q59.64,34.737,52.325,7.63c-.35-1.26-.98-1.645-2.205-1.3L39.515,9.17a1.552,1.552,0,0,0-1.26,2.205L50.12,55.58a2.047,2.047,0,0,0,.21.525c1.05-.28,2.03-.525,3.01-.805,1.33-.35,2.66-.735,4.025-1.05a1.4,1.4,0,0,1,1.75,1.05A1.439,1.439,0,0,1,58.1,57.05a5.407,5.407,0,0,1-.805.21C55.265,57.855,53.2,58.38,51.1,58.94Zm-48.2-3.535H10.08a1.473,1.473,0,1,1,.035,2.94H3.675c-.245,0-.49.035-.77.035v6.755c0,1.435.49,1.96,1.925,1.96H15.575c1.435,0,1.925-.49,1.925-1.925V22.33c0-1.435-.49-1.925-1.925-1.925H4.97c-1.61,0-2.065.455-2.065,2.065V54.53C2.905,54.775,2.905,55.02,2.905,55.405Z" fill="#fff"/>
      <path id="Path_106" data-name="Path 106" d="M17.905,25.455V43.83c0,1.295-.49,1.995-1.435,1.995-.98.035-1.47-.7-1.47-2.03V6.345A1.484,1.484,0,0,1,16.47,4.98a1.426,1.426,0,0,1,1.435,1.365,5.152,5.152,0,0,1,0,.735Z" transform="translate(11.25 3.735)" fill="#fff"/>
      <path id="Path_107" data-name="Path 107" d="M27.37,7.64c.735,0,1.225.42,1.435,1.295.77,2.8,1.505,5.635,2.24,8.435,2.1,7.805,4.2,15.645,6.3,23.45a1.5,1.5,0,0,1-.455,1.785,1.225,1.225,0,0,1-1.575.1,2.242,2.242,0,0,1-.77-1.12c-1.33-4.83-2.625-9.66-3.92-14.49q-2.31-8.662-4.655-17.325C25.69,8.55,26.285,7.64,27.37,7.64Z" transform="translate(19.425 5.73)" fill="#fff"/>
      <path id="Path_108" data-name="Path 108" d="M5,26.694V16.649A1.507,1.507,0,0,1,6.645,15a1.413,1.413,0,0,1,1.225,1.26A5.169,5.169,0,0,1,7.905,17V36.494c0,1.155-.56,1.855-1.47,1.82C5.56,38.279,5,37.614,5,36.494,5,33.239,5,29.984,5,26.694Z" transform="translate(3.75 11.246)" fill="#fff"/>
    </g>
  </g>
</svg>
