<svg xmlns="http://www.w3.org/2000/svg" xmlns:xlink="http://www.w3.org/1999/xlink" width="70" height="70" viewBox="0 0 70 70">
  <defs>
    <clipPath id="clip-path">
      <rect id="graduation-hat-02" width="70" height="70" transform="translate(142 1353)" fill="#fff" stroke="#707070" stroke-width="1"/>
    </clipPath>
  </defs>
  <g id="Mask_Group_16" data-name="Mask Group 16" transform="translate(-142 -1353)" clip-path="url(#clip-path)">
    <g id="e-learning" transform="translate(142 1353)">
      <path id="Path_102" data-name="Path 102" d="M44.712,75.5H16.889a11.144,11.144,0,0,1-9.736-4.957,9.123,9.123,0,0,1-1.608-5.359c0-16.434-.045-32.869,0-49.3,0-5.85,4.868-10.316,11.12-10.361,8.128-.045,16.211,0,24.339,0H73.293c1.876,0,2.233.357,2.233,2.278V55.851a5.58,5.58,0,0,1-.357,1.876A23.874,23.874,0,0,0,73.516,68.31a9.754,9.754,0,0,0,1.563,4.555,1.709,1.709,0,0,1,.268,1.876,1.731,1.731,0,0,1-1.742.759ZM72.489,8.513H17.157A10.251,10.251,0,0,0,15.5,8.6a7.667,7.667,0,0,0-7.056,7.5c.045,13.755,0,27.51,0,41.264,0,.268.045.536.089.982,2.858-2.68,6.163-3.215,9.736-3.215q26.527.067,53.01.045h1.161C72.489,39.55,72.489,24.1,72.489,8.513Zm-.67,49.66a4.868,4.868,0,0,0-.759-.045q-27.13,0-54.26.045a9.486,9.486,0,0,0-3.707.759c-2.769,1.161-4.555,3.26-4.555,6.431,0,3.126,1.742,5.18,4.511,6.475a9.674,9.674,0,0,0,4.332.759h53.1c.313,0,.581-.045.982-.045C69.631,67.641,70.39,62.907,71.819,58.173Z" transform="translate(-5.526 -5.501)" fill="#fff"/>
      <path id="Path_103" data-name="Path 103" d="M18.961,27.452V13.742c0-.759.045-1.474.8-1.876.715-.4,1.34-.045,1.965.313q11.187,6.9,22.463,13.71c1.563.938,1.563,2.1.045,3.037-7.547,4.6-15.05,9.2-22.6,13.8a1.7,1.7,0,0,1-1.876.223,1.8,1.8,0,0,1-.8-1.742C18.961,36.7,18.961,32.052,18.961,27.452Zm2.992,11.611c6.386-3.93,12.683-7.726,19.024-11.656C34.591,23.566,28.339,19.726,21.953,15.8Z" transform="translate(4.549 -0.86)" fill="#fff"/>
      <path id="Path_104" data-name="Path 104" d="M36.538,42.145H13.226a1.523,1.523,0,0,1-1.384-1.34,1.467,1.467,0,0,1,1.206-1.563A5.4,5.4,0,0,1,13.9,39.2H59.091a4.853,4.853,0,0,1,.8.045,1.528,1.528,0,0,1,1.3,1.518,1.454,1.454,0,0,1-1.384,1.384,5.954,5.954,0,0,1-.893,0Z" transform="translate(-0.792 19.772)" fill="#fff"/>
    </g>
  </g>
</svg>
