<?xml version="1.0" encoding="utf-8"?>
<!-- Generator: Adobe Illustrator 25.2.1, SVG Export Plug-In . SVG Version: 6.00 Build 0)  -->
<svg version="1.1" id="Layer_1" xmlns="http://www.w3.org/2000/svg" xmlns:xlink="http://www.w3.org/1999/xlink" x="0px" y="0px"
	 viewBox="0 0 100 100" style="enable-background:new 0 0 100 100;" xml:space="preserve">
<style type="text/css">
	.st0{fill:#FFFFFF;}
	.st1{fill:#FF9100;}
	.st2{fill:#6A3407;}
</style>
<path class="st0" d="M94,100H6c-3.3,0-6-2.7-6-6V6c0-3.3,2.7-6,6-6h88c3.3,0,6,2.7,6,6v88C100,97.3,97.3,100,94,100z"/>
<g>
	<path class="st1" d="M45.9,33.9l0,1.2l0,7.1c0,2.2-1.1,3.9-3,4.7l-12.6,5.3l0-17.2h-11l0,6.8H6.2l0-6.8l0-1.4
		c0-3.8,2.7-6.3,6.7-6.3h26C42.3,27.4,45.9,30.7,45.9,33.9z"/>
	<path class="st1" d="M45.8,62.6l-0.3,9.1H6.2l0-14.6c0-3.5,1.8-6.3,4.9-7.5l10.6-4.2l7.1-2.8l-7.1,6.6l0,13.5H45.8z"/>
	<polygon class="st2" points="47.7,61.1 62.5,61.1 62.5,71.7 47.7,71.7 	"/>
	<polygon class="st2" points="47.6,42 62.6,42 62.5,53.7 47.6,53.7 	"/>
	<polygon class="st2" points="67.9,61.1 23.8,61.1 23.8,50.1 28.9,45.2 28.9,53.7 67.8,53.7 	"/>
	<path class="st1" d="M90.9,34l0,0.7l0,0.3l0,0l0,0.4l-0.1,18.3h5l0.1,7.4h-5.1l0,10.6H75.9l0-10.6H70l-0.1-7.4h6l0-18.6H62.6l0,5.1
		h-15l0-7.9c0-0.3,0-0.7,0.1-1c0.4-2.4,2.4-4,5.2-4h30.9C87.2,27.4,90.9,30.8,90.9,34z"/>
</g>
</svg>
