<svg xmlns="http://www.w3.org/2000/svg" xmlns:xlink="http://www.w3.org/1999/xlink" width="70" height="70" viewBox="0 0 70 70">
  <defs>
    <clipPath id="clip-path">
      <rect id="Rectangle_77" data-name="Rectangle 77" width="70" height="70" transform="translate(-0.442)" fill="#6a3407"/>
    </clipPath>
  </defs>
  <g id="Mask_Group_9" data-name="Mask Group 9" transform="translate(0.442)" clip-path="url(#clip-path)">
    <g id="download_6_" data-name="download (6)" transform="translate(-0.161)">
      <g id="Group_6" data-name="Group 6">
        <path id="Path_66" data-name="Path 66" d="M58.065,106.1v2.258h.193a8.781,8.781,0,0,0,6.25-2.589l-1.6-1.6a6.538,6.538,0,0,1-4.654,1.927Z" transform="translate(-37.742 -67.711)" fill="#6a3407"/>
        <path id="Path_67" data-name="Path 67" d="M67.742,9.032A2.26,2.26,0,0,0,70,6.774V4.516a2.26,2.26,0,0,0-2.258-2.258H30.465A19.178,19.178,0,0,0,2.258,19.194V44.123a6.013,6.013,0,0,1-1.013,3.345A7.381,7.381,0,0,0,0,51.581,7.466,7.466,0,0,0,.782,54.9,7.413,7.413,0,0,1,1.2,60.571l-.255.681.707.709A12.063,12.063,0,0,0,8.094,65.3a6.217,6.217,0,0,0,5.452,4.674V70H36.127V67.742H67.74A2.26,2.26,0,0,0,70,65.484V63.226a2.26,2.26,0,0,0-2.258-2.258H65.482V9.032Zm0-4.516V6.774H36.059a19.357,19.357,0,0,0-2.265-2.258ZM7.915,62.944a9.81,9.81,0,0,1-4.383-2.308A9.667,9.667,0,0,0,2.8,53.888a5.193,5.193,0,0,1-.544-2.307,5.134,5.134,0,0,1,.866-2.86,8.268,8.268,0,0,0,1.392-4.6V19.194a16.935,16.935,0,0,1,33.871,0V44.123a8.261,8.261,0,0,0,1.392,4.6,5.135,5.135,0,0,1,.866,2.861,5.193,5.193,0,0,1-.544,2.307,9.674,9.674,0,0,0-.688,6.894l-.086.129a5.205,5.205,0,0,1-.945,1.059,13.561,13.561,0,0,0-11.5-13.312l-.524-2.1a14.691,14.691,0,0,0,9.775-13.818v-11.5a3.375,3.375,0,0,0-3.05-3.369L15.034,16.063a1.649,1.649,0,0,1-.357-3.205l1.488-.5-.715-2.141-1.488.5a3.875,3.875,0,0,0-2.445,4.99l-3.1,1.861a3.408,3.408,0,0,0-1.644,2.905V32.742A14.689,14.689,0,0,0,11.29,43.307V52.7A18.184,18.184,0,0,0,7.915,62.944Zm22.24-8.419-1.6,1.6a2.709,2.709,0,0,1,.8,1.927v9.694H18.9a6.177,6.177,0,0,0,1.423-3.95v-7.34h1.74a4.529,4.529,0,0,0,4.428-3.631l.375-1.876a11.3,11.3,0,0,1,9.208,10.024H31.613v-2.92a4.953,4.953,0,0,0-1.459-3.524ZM12.847,17.543a3.892,3.892,0,0,0,1.961.765l18.046,1.805a1.125,1.125,0,0,1,1.016,1.122V32.742A12.406,12.406,0,0,1,18.063,44.686v-6.96l2.316-2.315a7.516,7.516,0,0,0-5.312-12.83h-.777a7.487,7.487,0,0,0-5.257,2.154V20.473a1.135,1.135,0,0,1,.549-.969ZM24.81,49.7l-.534,2.672a2.266,2.266,0,0,1-2.214,1.817h-1.74V51.935a4.5,4.5,0,0,0-2.258-3.888V47.016a14.335,14.335,0,0,0,6.109.14ZM11.29,39.863a12.435,12.435,0,0,1-1.834-3.971l1.834,1.834Zm-.718-6.049a5.257,5.257,0,0,1,3.717-8.975h.777a5.258,5.258,0,0,1,3.717,8.976l-2.977,2.976V47.419a4.47,4.47,0,0,0-2.258.628V36.791ZM10.161,63.79v-.565a15.874,15.874,0,0,1,1.129-5.853v5.853h2.258V51.935a2.258,2.258,0,1,1,4.516,0V63.791a3.951,3.951,0,1,1-7.9,0Zm21.452,3.952V63.226h2.258v4.516Zm36.129-2.258H36.129v-.1a7.407,7.407,0,0,0,4.2-2.162H67.742Zm-4.516-4.516H41.835l-.121-.361a7.433,7.433,0,0,1,.405-5.71,7.412,7.412,0,0,0-.462-7.429,6.013,6.013,0,0,1-1.013-3.345V19.194a19.055,19.055,0,0,0-2.94-10.161H63.226Z" transform="translate(0)" fill="#6a3407"/>
        <path id="Path_68" data-name="Path 68" d="M131.613,45.806h-6.774V41.29h6.774V39.032h-6.774V34.516h6.774V32.258h-9.032V48.065h9.032Z" transform="translate(-79.677 -20.968)" fill="#6a3407"/>
        <path id="Path_69" data-name="Path 69" d="M148.387,86.129H152.9v2.258h-4.516v2.258H152.9V92.9h-4.516v2.258h6.774V83.871h-6.774Z" transform="translate(-96.452 -54.516)" fill="#6a3407"/>
        <path id="Path_70" data-name="Path 70" d="M129.032,131.29h2.258v2.258h2.258v-4.516h-4.516Z" transform="translate(-83.871 -83.871)" fill="#6a3407"/>
        <path id="Path_71" data-name="Path 71" d="M154.839,131.29H157.1v2.258h2.258v-4.516h-4.516Z" transform="translate(-100.645 -83.871)" fill="#6a3407"/>
        <path id="Path_72" data-name="Path 72" d="M131.29,154.839h-2.258v4.516h4.516V157.1H131.29Z" transform="translate(-83.871 -100.645)" fill="#6a3407"/>
        <path id="Path_73" data-name="Path 73" d="M157.1,154.839h-2.258v4.516h4.516V157.1H157.1Z" transform="translate(-100.645 -100.645)" fill="#6a3407"/>
        <circle id="Ellipse_14" data-name="Ellipse 14" cx="1.129" cy="1.129" r="1.129" transform="translate(27.097 25.968)" fill="#6a3407"/>
      </g>
    </g>
  </g>
</svg>
