<svg xmlns="http://www.w3.org/2000/svg" xmlns:xlink="http://www.w3.org/1999/xlink" width="14" height="14" viewBox="0 0 14 14">
  <defs>
    <clipPath id="clip-path">
      <rect id="Rectangle_6358" data-name="Rectangle 6358" width="14" height="14" transform="translate(58 701)" fill="#ff8500" stroke="#707070" stroke-width="1"/>
    </clipPath>
  </defs>
  <g id="Mask_Group_151" data-name="Mask Group 151" transform="translate(-58 -701)" clip-path="url(#clip-path)">
    <g id="logout" transform="translate(57.401 700.401)">
      <path id="Path_13831" data-name="Path 13831" d="M5.082,14.6Q3.277,14,1.471,13.4A1.178,1.178,0,0,1,.6,12.191V1.845A1.173,1.173,0,0,1,1.839.6H8.3a1.6,1.6,0,0,1,1.6,1.331,1.188,1.188,0,0,1,.021.231q0,1.327,0,2.65a.431.431,0,0,1-.565.432.456.456,0,0,1-.31-.465V2.726c0-.185,0-.374,0-.559a.709.709,0,0,0-.693-.693c-1.231-.006-2.459,0-3.7.018.082.027.161.058.243.085.228.076.459.149.687.228A1.17,1.17,0,0,1,6.429,2.97c0,1.179,0,2.359,0,3.541v5.453c.052,0,.094.009.137.009H8.274a.725.725,0,0,0,.778-.775c0-.842,0-1.687,0-2.529A.44.44,0,0,1,9.6,8.2a.431.431,0,0,1,.322.38c0,.036,0,.073,0,.109,0,.839,0,1.678,0,2.514a1.6,1.6,0,0,1-1.65,1.644H6.429v.471a1.168,1.168,0,0,1-.97,1.264c-.009,0-.015.012-.021.015C5.319,14.6,5.2,14.6,5.082,14.6Zm.474-6.416V3.018c0-.231-.055-.316-.252-.383q-1.7-.565-3.389-1.128a.3.3,0,0,0-.438.31v10.4a.307.307,0,0,0,.246.343c.249.085.5.167.751.252l2.626.875c.146.049.289.061.383-.073a.518.518,0,0,0,.07-.28Q5.558,10.758,5.556,8.182Z" fill="#ff8500"/>
      <path id="Path_13832" data-name="Path 13832" d="M14.6,6.86c-.091.106-.173.216-.271.313Q13.321,8.185,12.31,9.191a.439.439,0,1,1-.617-.62l1.295-1.295c.03-.03.061-.064.109-.119H8.663a.438.438,0,1,1-.082-.872c.049,0,.1,0,.149,0h4.365c-.049-.052-.079-.085-.109-.119q-.657-.657-1.313-1.316a.433.433,0,0,1-.1-.5.415.415,0,0,1,.432-.246.571.571,0,0,1,.277.131q1.1,1.085,2.188,2.179a1.166,1.166,0,0,1,.125.17C14.6,6.678,14.6,6.769,14.6,6.86Z" fill="#ff8500"/>
    </g>
  </g>
</svg>
