<svg xmlns="http://www.w3.org/2000/svg" xmlns:xlink="http://www.w3.org/1999/xlink" width="14" height="14" viewBox="0 0 14 14">
  <defs>
    <clipPath id="clip-path">
      <rect id="Rectangle_159" data-name="Rectangle 159" width="14" height="14" transform="translate(498 192)" fill="#0c213a" stroke="#707070" stroke-width="1"/>
    </clipPath>
  </defs>
  <g id="Mask_Group_19" data-name="Mask Group 19" transform="translate(-498 -192)" clip-path="url(#clip-path)">
    <path id="youtube" d="M11.092,2.047H2.908A2.908,2.908,0,0,0,0,4.954V9.046a2.908,2.908,0,0,0,2.908,2.908h8.185A2.908,2.908,0,0,0,14,9.046V4.954A2.908,2.908,0,0,0,11.092,2.047ZM9.126,7.2,5.3,9.025a.154.154,0,0,1-.22-.139V5.12A.154.154,0,0,1,5.3,4.983l3.828,1.94A.154.154,0,0,1,9.126,7.2Z" transform="translate(498 192)" fill="#0c213a"/>
  </g>
</svg>
