<svg xmlns="http://www.w3.org/2000/svg" xmlns:xlink="http://www.w3.org/1999/xlink" width="14" height="14" viewBox="0 0 14 14">
  <defs>
    <clipPath id="clip-path">
      <rect id="Rectangle_6356" data-name="Rectangle 6356" width="14" height="14" transform="translate(58 598)" fill="#ff8500" stroke="#707070" stroke-width="1"/>
    </clipPath>
  </defs>
  <g id="Mask_Group_150" data-name="Mask Group 150" transform="translate(-58 -598)" clip-path="url(#clip-path)">
    <g id="abc-block" transform="translate(57.421 597.413)">
      <path id="Path_13825" data-name="Path 13825" d="M1.292,14.584a.6.6,0,0,1-.384-.632c.006-1.6,0-3.2,0-4.8,0-.418.182-.6.6-.6H6.336c.427,0,.605.182.605.608,0,1.589,0,3.18,0,4.769a.616.616,0,0,1-.378.654Q3.933,14.583,1.292,14.584Zm.185-.563h4.9v-4.9h-4.9C1.477,10.751,1.477,12.378,1.477,14.021Z" fill="#ff8500"/>
      <path id="Path_13826" data-name="Path 13826" d="M11.041,5.77a.52.52,0,0,1-.357.481c-.448.179-.9.354-1.346.533L6.124,8.046a.521.521,0,0,1-.781-.336Q4.454,5.458,3.564,3.2a.522.522,0,0,1,.342-.787Q6.171,1.533,8.424.651a.513.513,0,0,1,.762.327q.894,2.274,1.782,4.548C11,5.6,11.017,5.688,11.041,5.77ZM8.66,1.162l-4.581,1.8c.6,1.534,1.2,3.05,1.8,4.578,1.534-.6,3.053-1.2,4.578-1.8C9.858,4.215,9.262,2.7,8.66,1.162Z" fill="#ff8500"/>
      <path id="Path_13827" data-name="Path 13827" d="M7.111,12.542c.006-.036.018-.1.036-.169q.626-2.36,1.256-4.72a.509.509,0,0,1,.693-.4q2.369.626,4.735,1.259a.494.494,0,0,1,.393.66q-.631,2.405-1.268,4.808a.493.493,0,0,1-.66.375q-2.387-.631-4.775-1.268A.51.51,0,0,1,7.111,12.542Zm5.319,1.244c.424-1.589.841-3.159,1.262-4.738-1.6-.424-3.171-.844-4.753-1.265-.424,1.6-.844,3.168-1.265,4.753C9.265,12.956,10.838,13.368,12.43,13.785Z" fill="#ff8500"/>
      <path id="Path_13828" data-name="Path 13828" d="M4.657,11.35a1.633,1.633,0,0,1,.227.121.7.7,0,0,1,.281.772.685.685,0,0,1-.626.581c-.487.048-.98.051-1.471.061a.273.273,0,0,1-.272-.3c0-.759,0-1.522,0-2.281a.283.283,0,0,1,.3-.306c.427,0,.856,0,1.283.024a.7.7,0,0,1,.654.548.679.679,0,0,1-.363.766A.185.185,0,0,1,4.657,11.35ZM3.386,12.427c.278,0,.554.018.823-.006a.378.378,0,0,0,.384-.4.36.36,0,0,0-.369-.393c-.272-.027-.551-.006-.841-.006C3.386,11.888,3.386,12.161,3.386,12.427Zm0-1.244c.272-.015.545-.018.814-.048a.333.333,0,0,0,.272-.357.262.262,0,0,0-.263-.29c-.266-.036-.539-.045-.823-.067Z" fill="#ff8500"/>
      <path id="Path_13829" data-name="Path 13829" d="M6.406,4.469V3.253A.412.412,0,0,1,7.1,2.947c.094.091.188.188.278.281q.644.676,1.289,1.359a2,2,0,0,1,.2.227.26.26,0,0,1-.018.378.248.248,0,0,1-.366-.027,4.72,4.72,0,0,1-.345-.351.133.133,0,0,0-.175-.042c-.293.121-.59.239-.89.351a.149.149,0,0,0-.112.172c.006.163,0,.327-.006.49a.245.245,0,0,1-.245.257.259.259,0,0,1-.281-.221A1.956,1.956,0,0,1,6.4,5.495c0-.342,0-.684,0-1.026ZM7.74,4.378l-.817-.911V4.7Z" fill="#ff8500"/>
      <path id="Path_13830" data-name="Path 13830" d="M9.407,10.723a1.658,1.658,0,0,1,.678-1.307,1.379,1.379,0,0,1,1.964.523,1.08,1.08,0,0,1,.07.369.245.245,0,0,1-.215.26.25.25,0,0,1-.281-.185,2.757,2.757,0,0,0-.166-.415.7.7,0,0,0-1.047-.127A1.51,1.51,0,0,0,10,11.123a.6.6,0,0,0,.523.52.68.68,0,0,0,.72-.206c.048-.054.091-.115.136-.169a.225.225,0,0,1,.306-.054.237.237,0,0,1,.112.3.946.946,0,0,1-.808.651,1.392,1.392,0,0,1-1.319-.5A1.377,1.377,0,0,1,9.407,10.723Z" fill="#ff8500"/>
    </g>
  </g>
</svg>
