<svg xmlns="http://www.w3.org/2000/svg" xmlns:xlink="http://www.w3.org/1999/xlink" width="70" height="70" viewBox="0 0 70 70">
  <defs>
    <clipPath id="clip-path">
      <rect id="Rectangle_7" data-name="Rectangle 7" width="70" height="70" transform="translate(789 1166)" fill="#6a3407" stroke="#707070" stroke-width="1"/>
    </clipPath>
  </defs>
  <g id="Mask_Group_3" data-name="Mask Group 3" transform="translate(-789 -1166)" clip-path="url(#clip-path)">
    <g id="download_7_" data-name="download (7)" transform="translate(797.75 1166)">
      <path id="Path_41" data-name="Path 41" d="M51.458,31.25A1.459,1.459,0,0,1,50,29.792V19.583a2.917,2.917,0,1,0-5.833,0V29.792a1.458,1.458,0,0,1-2.917,0V19.583a5.833,5.833,0,1,1,11.667,0V29.792A1.459,1.459,0,0,1,51.458,31.25Z" transform="translate(-23.75 -5)" fill="#6a3407"/>
      <path id="Path_42" data-name="Path 42" d="M51.458,30.417h-8.75a1.458,1.458,0,1,1,0-2.917h8.75a1.458,1.458,0,1,1,0,2.917Z" transform="translate(-23.75 -10)" fill="#6a3407"/>
      <path id="Path_43" data-name="Path 43" d="M74.375,23.542h-8.75a1.458,1.458,0,0,1,0-2.917h8.75a1.458,1.458,0,1,1,0,2.917Z" transform="translate(-32.083 -7.5)" fill="#6a3407"/>
      <path id="Path_44" data-name="Path 44" d="M72.5,25.417a1.459,1.459,0,0,1-1.458-1.458v-8.75a1.458,1.458,0,1,1,2.917,0v8.75A1.459,1.459,0,0,1,72.5,25.417Z" transform="translate(-34.583 -5)" fill="#6a3407"/>
      <path id="Path_45" data-name="Path 45" d="M58.958,70H21.042a7.3,7.3,0,0,1-7.292-7.292V7.292A7.3,7.3,0,0,1,21.042,0H58.958A7.3,7.3,0,0,1,66.25,7.292V62.708A7.3,7.3,0,0,1,58.958,70ZM21.042,2.917a4.38,4.38,0,0,0-4.375,4.375V62.708a4.38,4.38,0,0,0,4.375,4.375H58.958a4.38,4.38,0,0,0,4.375-4.375V7.292a4.38,4.38,0,0,0-4.375-4.375Z" transform="translate(-13.75)" fill="#6a3407"/>
      <path id="Path_46" data-name="Path 46" d="M52.438,62.5H29.362a1.458,1.458,0,1,1,0-2.917H52.438a1.458,1.458,0,0,1,0,2.917Z" transform="translate(-18.897 -21.667)" fill="#6a3407"/>
      <path id="Path_47" data-name="Path 47" d="M52.438,90H29.362a1.458,1.458,0,1,1,0-2.917H52.438a1.458,1.458,0,1,1,0,2.917Z" transform="translate(-18.897 -31.667)" fill="#6a3407"/>
      <path id="Path_48" data-name="Path 48" d="M61.188,76.25H29.362a1.458,1.458,0,1,1,0-2.917H61.188a1.458,1.458,0,1,1,0,2.917Z" transform="translate(-18.897 -26.667)" fill="#6a3407"/>
    </g>
  </g>
</svg>
