<svg xmlns="http://www.w3.org/2000/svg" width="14" height="14" viewBox="0 0 14 14">
    <defs>
        <clipPath id="geigqmvv0a">
            <path data-name="Rectangle 6410" transform="translate(433 179)" style="fill:#fff" d="M0 0h14v14H0z"/>
        </clipPath>
    </defs>
    <g data-name="Mask Group 191" transform="translate(-433 -179)" style="clip-path:url(#geigqmvv0a)">
        <g data-name="Group 12780">
            <g data-name="Group 12779">
                <path data-name="Path 13956" d="M4.595 2.422c.135.076 1.045.516 1.484.727 0 .171.005.466.011.471.048.422.132.892.156 1.024-.04.022-.246.156-.246.574v.04c.088 1.161.55.661.645 1.169A2.527 2.527 0 0 0 8.019 8.1a1.94 1.94 0 0 0 1.676 0 2.527 2.527 0 0 0 1.373-1.668c.1-.509.557-.008.645-1.169v-.045c0-.418-.205-.552-.245-.574.024-.133.107-.6.156-1.024.006-.005.01-.3.011-.471.241-.116.624-.3.943-.457v1.122a.289.289 0 0 0-.029.489s-.128.72-.169.932.73.169.7 0l-.169-.932a.289.289 0 0 0-.029-.489V2.545c.119-.059.207-.1.243-.124.1-.054.147-.123.136-.194.013-.075-.041-.155-.186-.226C12.037 1.5 9.4.208 9.144.084A.8.8 0 0 0 8.857 0a.8.8 0 0 0-.287.084C8.31.208 5.677 1.5 4.644 2c-.145.071-.2.151-.186.226-.01.074.042.142.137.196z" transform="translate(431.143 179)" style="fill:#fff"/>
                <path data-name="Path 13957" d="M11.313 16.035a12.951 12.951 0 0 1-1.477-.758.254.254 0 0 0-.358.111c-.4.671-1.143 2.621-1.662 2.657H7.8c-.518-.036-1.261-1.986-1.662-2.657a.254.254 0 0 0-.358-.111 12.949 12.949 0 0 1-1.477.758c-1.631.588-2.364 1.188-2.364 1.6v2.719h11.74v-2.722c-.002-.409-.735-1.009-2.366-1.597z" transform="translate(432.192 172.649)" style="fill:#fff"/>
            </g>
        </g>
    </g>
</svg>
