<svg xmlns="http://www.w3.org/2000/svg" xmlns:xlink="http://www.w3.org/1999/xlink" width="14" height="14" viewBox="0 0 14 14">
  <defs>
    <clipPath id="clip-path">
      <rect id="Rectangle_6355" data-name="Rectangle 6355" width="14" height="14" transform="translate(58 548)" fill="#ff8500" stroke="#707070" stroke-width="1"/>
    </clipPath>
  </defs>
  <g id="Mask_Group_149" data-name="Mask Group 149" transform="translate(-58 -548)" clip-path="url(#clip-path)">
    <path id="graduation-hat" d="M.352,5.489A.649.649,0,0,1,.73,5.142Q3.916,3.77,7.1,2.382a.582.582,0,0,1,.5,0q3.2,1.39,6.407,2.778c.287.123.4.331.314.578A.439.439,0,0,1,14.063,6c-.305.132-.607.267-.915.4a.162.162,0,0,0-.117.179q0,2.425,0,4.852a.642.642,0,0,1-.062.287.425.425,0,0,1-.463.211.446.446,0,0,1-.346-.393c0-.05,0-.1,0-.15V6.838c-.141.062-.27.106-.387.17-.032.018-.047.091-.047.138,0,.8-.023,1.6,0,2.391a2.112,2.112,0,0,1-.906,1.828,4.7,4.7,0,0,1-2,.865,7.067,7.067,0,0,1-3.7-.208,3.646,3.646,0,0,1-1.69-1.085A1.885,1.885,0,0,1,2.972,9.68c.006-.842,0-1.684,0-2.529a.165.165,0,0,0-.117-.182c-.71-.3-1.417-.616-2.13-.915a.632.632,0,0,1-.378-.346C.352,5.635.352,5.562.352,5.489Zm10.423.989c-.062-.015-.082-.023-.1-.026Q9,6.244,7.34,6.034a.44.44,0,1,1,.091-.871c.3.035.6.073.895.111,1.3.161,2.6.323,3.9.493.223.029.367-.106.584-.164a.959.959,0,0,0-.1-.05Q10.084,4.413,7.454,3.28a.325.325,0,0,0-.229.009Q5,4.243,2.781,5.21c-.285.123-.572.249-.883.381.065.032.1.053.141.07q2.6,1.126,5.2,2.247a.324.324,0,0,0,.229,0c.657-.279,1.311-.563,1.965-.848C9.868,6.873,10.305,6.682,10.775,6.477Zm.073.93-.153.059Q9.151,8.135,7.6,8.806a.6.6,0,0,1-.51,0c-.736-.326-1.476-.642-2.215-.962C4.541,7.7,4.2,7.554,3.849,7.4v.15c0,.707.006,1.411,0,2.118a1.049,1.049,0,0,0,.261.713,2.414,2.414,0,0,0,.965.675,6.029,6.029,0,0,0,4.3.106,2.8,2.8,0,0,0,1.106-.657,1.168,1.168,0,0,0,.375-.889c-.015-.684,0-1.367,0-2.051Z" transform="translate(57.651 547.646)" fill="#ff8500"/>
  </g>
</svg>
