<svg xmlns="http://www.w3.org/2000/svg" xmlns:xlink="http://www.w3.org/1999/xlink" width="70" height="70" viewBox="0 0 70 70">
  <defs>
    <clipPath id="clip-path">
      <rect id="Rectangle_78" data-name="Rectangle 78" width="70" height="70" fill="#6a3407"/>
    </clipPath>
  </defs>
  <g id="Mask_Group_10" data-name="Mask Group 10" clip-path="url(#clip-path)">
    <g id="download_4_" data-name="download (4)">
      <path id="Path_74" data-name="Path 74" d="M64.355,51.935V49.677h3.387V40.645H70V33.871H65.484v-8.8a5.61,5.61,0,0,0-4.42-5.511l-5.741-1.275V16.637a7.9,7.9,0,0,0,3.387-6.476V7.9a7.913,7.913,0,0,0-7.9-7.9H0V38.387H31.613v2.258h2.258V43a6.779,6.779,0,0,0-5.645,6.673v2.258a6.755,6.755,0,0,0,2.258,5.035v2.017L25.856,60.31a4.481,4.481,0,0,0-2.146,1.383,4.482,4.482,0,0,0-2.146-1.383l-4.628-1.322V56.971a6.751,6.751,0,0,0,2.258-5.035V49.677a6.774,6.774,0,1,0-13.548,0v2.258A6.755,6.755,0,0,0,7.9,56.971v2.017L3.275,60.31A4.533,4.533,0,0,0,0,64.652V70H70V64.652a4.534,4.534,0,0,0-3.275-4.342L62.1,58.988V56.971a6.755,6.755,0,0,0,2.258-5.035Zm-2.258,0a4.516,4.516,0,1,1-9.032,0V49.677a4.516,4.516,0,1,1,9.032,0ZM46.29,61.693a4.482,4.482,0,0,0-2.146-1.383l-4.628-1.322V56.971a6.751,6.751,0,0,0,2.258-5.035V49.677h9.032v2.258a6.755,6.755,0,0,0,2.258,5.035v2.017l-4.628,1.322A4.482,4.482,0,0,0,46.29,61.693ZM67.742,38.387H33.871V36.129H67.742Zm-7.168-16.62a3.367,3.367,0,0,1,2.652,3.306v8.8H38.387v-8.8a3.368,3.368,0,0,1,2.652-3.307l5.863-1.3a4.659,4.659,0,0,0,7.808,0Zm-7.509-2.885a2.49,2.49,0,0,1-4.516,0V17.731a7.823,7.823,0,0,0,4.516,0ZM56.452,7.9v2.258a5.645,5.645,0,1,1-11.29,0V7.9a5.645,5.645,0,1,1,11.29,0ZM2.258,36.129V2.258H45.286A7.874,7.874,0,0,0,42.9,7.9v2.258a7.893,7.893,0,0,0,3.387,6.476v1.651l-5.741,1.276a5.609,5.609,0,0,0-4.42,5.51v8.8H31.613v2.258Zm63.226,4.516v6.774H63.96a6.763,6.763,0,0,0-12.758,0H41.379A6.787,6.787,0,0,0,36.129,43v-2.36Zm-35,9.032a4.516,4.516,0,1,1,9.032,0v2.258a4.516,4.516,0,1,1-9.032,0ZM35,58.71a6.741,6.741,0,0,0,2.258-.4v1.213A2.887,2.887,0,0,1,35,60.968a2.887,2.887,0,0,1-2.258-1.441V58.314A6.741,6.741,0,0,0,35,58.71ZM26.476,62.48l4.651-1.329a4.652,4.652,0,0,0,7.744,0l4.651,1.329a2.268,2.268,0,0,1,1.637,2.172v3.09H24.839v-3.09a2.269,2.269,0,0,1,1.637-2.172ZM7.9,49.677a4.516,4.516,0,1,1,9.032,0v2.258a4.516,4.516,0,1,1-9.032,0Zm4.516,9.032a6.741,6.741,0,0,0,2.258-.4v1.213a2.887,2.887,0,0,1-2.258,1.441,2.887,2.887,0,0,1-2.258-1.441V58.314A6.741,6.741,0,0,0,12.419,58.71ZM2.258,64.652A2.269,2.269,0,0,1,3.9,62.48l4.651-1.329a4.919,4.919,0,0,0,3.873,2.074,4.915,4.915,0,0,0,3.872-2.074l4.651,1.329a2.268,2.268,0,0,1,1.637,2.172v3.09H2.258ZM66.1,62.48a2.268,2.268,0,0,1,1.637,2.172v3.09H47.419v-3.09a2.269,2.269,0,0,1,1.637-2.172l4.651-1.329a4.652,4.652,0,0,0,7.744,0Zm-6.266-2.953a2.49,2.49,0,0,1-4.516,0V58.314a6.648,6.648,0,0,0,4.516,0Zm0,0" transform="translate(0 0)" fill="#6a3407"/>
      <path id="Path_75" data-name="Path 75" d="M12.9,12.9h2.258v2.258H12.9Zm0,0" transform="translate(-8.387 -8.387)" fill="#6a3407"/>
      <path id="Path_76" data-name="Path 76" d="M25.806,12.9h9.032v2.258H25.806Zm0,0" transform="translate(-16.774 -8.387)" fill="#6a3407"/>
      <path id="Path_77" data-name="Path 77" d="M12.9,25.806h2.258v2.258H12.9Zm0,0" transform="translate(-8.387 -16.774)" fill="#6a3407"/>
      <path id="Path_78" data-name="Path 78" d="M25.806,25.806h9.032v2.258H25.806Zm0,0" transform="translate(-16.774 -16.774)" fill="#6a3407"/>
      <path id="Path_79" data-name="Path 79" d="M35.484,36.971l-4.527,2.012A35.877,35.877,0,0,1,16.29,42.1H15.161V55.644H12.9V57.9H37.742V55.644H35.484Zm-2.258,3.475v15.2H30.968V41.424c.3-.125.606-.244.907-.377Zm-6.774,2.538c.759-.209,1.511-.445,2.258-.7V55.644H26.452Zm-2.258,12.66H21.935V43.929q1.136-.168,2.258-.4ZM17.419,44.338c.756-.021,1.508-.073,2.258-.139V55.644H17.419Zm0,0" transform="translate(-8.387 -24.031)" fill="#6a3407"/>
    </g>
  </g>
</svg>
