<svg xmlns="http://www.w3.org/2000/svg" xmlns:xlink="http://www.w3.org/1999/xlink" width="54" height="54" viewBox="0 0 54 54">
  <defs>
    <clipPath id="clip-path">
      <rect id="Rectangle_148624" data-name="Rectangle 148624" width="24" height="24" transform="translate(273 3768)" fill="#fdfdfd" stroke="#000739" stroke-width="1"/>
    </clipPath>
  </defs>
  <g id="Group_18843" data-name="Group 18843" transform="translate(-258 -3655)">
    <g id="Ellipse_22" data-name="Ellipse 22" transform="translate(258 3655)" fill="none" stroke="#1c457d" stroke-width="1" stroke-dasharray="5 3">
      <circle cx="27" cy="27" r="27" stroke="none"/>
      <circle cx="27" cy="27" r="26.5" fill="none"/>
    </g>
    <circle id="Ellipse_23" data-name="Ellipse 23" cx="22" cy="22" r="22" transform="translate(263 3660)" fill="#1c457d"/>
    <g id="Mask_Group_498" data-name="Mask Group 498" transform="translate(0 -98)" clip-path="url(#clip-path)">
      <g id="download_9_" data-name="download (9)" transform="translate(268.82 3763.82)">
        <path id="Path_19880" data-name="Path 19880" d="M6.337,23.865a7.833,7.833,0,0,1-2.157-5.8c0-4.719,3.371-8.9,8.09-11.056l1.213,1.753C9.034,11.191,8.09,14.292,7.82,16.315a4,4,0,0,1,2.562-.4A4.709,4.709,0,0,1,14.7,20.629,5.32,5.32,0,0,1,13.348,24a4.472,4.472,0,0,1-3.371,1.348,5.3,5.3,0,0,1-3.64-1.483Zm13.483,0a7.833,7.833,0,0,1-2.157-5.8c0-4.719,3.371-8.9,8.09-11.056l1.213,1.753c-4.449,2.427-5.393,5.528-5.663,7.551a4,4,0,0,1,2.562-.4,4.709,4.709,0,0,1,4.315,4.719A5.32,5.32,0,0,1,26.831,24a4.279,4.279,0,0,1-3.371,1.348,5.3,5.3,0,0,1-3.64-1.483Z" fill="#fdfdfd"/>
      </g>
    </g>
  </g>
</svg>
