<svg xmlns="http://www.w3.org/2000/svg" xmlns:xlink="http://www.w3.org/1999/xlink" width="19" height="19" viewBox="0 0 19 19">
  <defs>
    <clipPath id="clip-path">
      <rect id="Rectangle_83" data-name="Rectangle 83" width="19" height="19" transform="translate(435 30)" fill="#6a3407" stroke="#707070" stroke-width="1"/>
    </clipPath>
  </defs>
  <g id="Mask_Group_12" data-name="Mask Group 12" transform="translate(-435 -30)" clip-path="url(#clip-path)">
    <g id="home-icon-silhouette-01" transform="translate(435 30.653)">
      <path id="Path_94" data-name="Path 94" d="M0,9.071a1.84,1.84,0,0,1,.56-.836Q4.009,4.8,7.448,1.348A2.854,2.854,0,0,1,10.982.9a3.366,3.366,0,0,1,.579.465c.674.655,1.33,1.33,1.995,1.985a.1.1,0,0,0,.047.028.843.843,0,0,0,.019-.142c0-.323-.01-.646,0-.969A1.1,1.1,0,0,1,14.487,1.2a1.056,1.056,0,0,1,1.2.6,1.548,1.548,0,0,1,.114.589c.01,1.016,0,2.033.01,3.04a.381.381,0,0,0,.114.266c.893.9,1.8,1.8,2.7,2.707a1.088,1.088,0,0,1-1.368,1.691,2.483,2.483,0,0,1-.228-.209L10.07,2.925a.683.683,0,0,0-1.14,0L1.938,9.916a1.11,1.11,0,0,1-1.415.237A1.232,1.232,0,0,1,0,9.423C0,9.318,0,9.195,0,9.071Z" transform="translate(0 -0.482)" fill="#6a3407"/>
      <path id="Path_95" data-name="Path 95" d="M10.581,12.222H7.038v4.826c-.076,0-.133.01-.18.01-.969,0-1.928.01-2.9,0a1.953,1.953,0,0,1-1.995-1.7,2.181,2.181,0,0,1-.019-.351V10.589a.781.781,0,0,1,.237-.579Q5.276,6.931,8.349,3.844a.559.559,0,0,1,.921,0l6.165,6.165a.775.775,0,0,1,.247.579c-.01,1.482,0,2.954,0,4.436a1.956,1.956,0,0,1-2.014,2.033c-.969.01-1.938,0-2.916,0-.047,0-.095-.01-.171-.01Z" transform="translate(0.695 0.632)" fill="#6a3407"/>
    </g>
  </g>
</svg>
