<svg xmlns="http://www.w3.org/2000/svg" xmlns:xlink="http://www.w3.org/1999/xlink" width="14" height="14" viewBox="0 0 14 14">
  <defs>
    <clipPath id="clip-path">
      <rect id="Rectangle_6357" data-name="Rectangle 6357" width="14" height="14" transform="translate(58 648)" fill="#ff8500" stroke="#707070" stroke-width="1"/>
    </clipPath>
  </defs>
  <g id="Mask_Group_148" data-name="Mask Group 148" transform="translate(-58 -648)" clip-path="url(#clip-path)">
    <g id="padlock" transform="translate(57.608 647.604)">
      <path id="Path_13823" data-name="Path 13823" d="M3.456,6.065V5.9c0-.6-.015-1.2.015-1.8a3.931,3.931,0,0,1,7.8-.4,5.109,5.109,0,0,1,.05.738c.009.493,0,.986,0,1.482V6.06a4.74,4.74,0,0,1,.478.115,1.276,1.276,0,0,1,.832,1.269c0,.652,0,1.308,0,1.96v3.616a1.259,1.259,0,0,1-.741,1.243,1.42,1.42,0,0,1-.573.127q-3.931.013-7.866,0a1.282,1.282,0,0,1-1.313-1.343c-.006-.764,0-1.529,0-2.293,0-1.1,0-2.2,0-3.309A1.285,1.285,0,0,1,3.09,6.139,3.07,3.07,0,0,1,3.456,6.065Zm3.937.891H3.563c-.4,0-.543.136-.543.54v5.487c0,.39.145.534.534.534h7.677c.39,0,.534-.145.534-.534v-5.5c0-.384-.145-.525-.528-.525Zm3.046-.883a.556.556,0,0,0,.012-.091c0-.6.015-1.2-.006-1.8a3.057,3.057,0,0,0-6.11.153c-.006.537,0,1.074,0,1.612a.967.967,0,0,0,.012.127Z" fill="#ff8500"/>
      <path id="Path_13824" data-name="Path 13824" d="M6.957,11.346c0-.136-.009-.272,0-.407.009-.1-.032-.148-.127-.189a1.3,1.3,0,0,1,.115-2.408,1.319,1.319,0,0,1,1.662.726,1.3,1.3,0,0,1-.688,1.694.139.139,0,0,0-.094.151c0,.274,0,.552,0,.826a.436.436,0,1,1-.871,0Q6.957,11.545,6.957,11.346ZM7.4,10.012a.411.411,0,0,0,.428-.443.437.437,0,1,0-.874.018A.412.412,0,0,0,7.4,10.012Z" fill="#ff8500"/>
    </g>
  </g>
</svg>
