<?xml version="1.0" encoding="utf-8"?>
<!-- Generator: Adobe Illustrator 25.2.1, SVG Export Plug-In . SVG Version: 6.00 Build 0)  -->
<svg version="1.1" id="Layer_1" xmlns="http://www.w3.org/2000/svg" xmlns:xlink="http://www.w3.org/1999/xlink" x="0px" y="0px"
	 viewBox="0 0 200 200" style="enable-background:new 0 0 200 200;" xml:space="preserve">
<style type="text/css">
	.st0{fill:#79829C;}
	.st1{fill:#FFFFFF;}
</style>
<path class="st0" d="M94.4,200c3.9,0,7.8,0,11.7,0c3.3-0.4,6.7-0.7,10-1.3c20.8-3.5,39-12.5,54-27.4c22.4-22.4,32.2-49.6,29.4-81.2
	c-2-21.1-10.2-39.9-24.4-55.8c-18.8-21.1-42.5-32.5-70.7-33.8c-19.7-1-38.2,3.6-55.1,13.9C23.4,30.2,7.5,53.1,2,83
	c-0.7,3.7-1,7.6-1.6,11.3c0,3.9,0,7.8,0,11.7c0.2,1.4,0.3,2.8,0.5,4.2c2.4,21.5,10.6,40.4,25.1,56.5c15.4,17.1,34.4,27.7,57.1,31.7
	C86.8,199.1,90.6,199.5,94.4,200z M86.9,99.9c0.8,0.9,1.3,1.4,1.8,1.9c11,11,22,22,32.9,32.9c0.6,0.6,1.2,1.2,1.7,1.9
	c3.3,4.1,2,10-2.6,12.5c-3.5,1.8-7.1,1.1-10.4-2.2c-13.2-13.2-26.5-26.5-39.7-39.7c-4.9-4.9-4.9-9.3,0-14.1
	c13-13.1,26.1-26.2,39.2-39.2c0.6-0.6,1.2-1.2,1.9-1.7c4.7-3.7,11.5-1.6,13.1,4.2c1,3.6-0.3,6.4-2.9,8.9c-11,11-22.1,22-33.1,33.1
	C88.3,98.9,87.7,99.3,86.9,99.9z"/>
<path class="st1" d="M106,200c3.8-0.5,7.6-0.9,11.3-1.6c22.7-4,41.7-14.7,57.1-31.7c14.5-16.1,22.7-35,25.1-56.5
	c0.2-1.4,0.3-2.8,0.5-4.2c0,31.3,0,62.7,0,94C168.7,200,137.4,200,106,200z"/>
</svg>
