<svg xmlns="http://www.w3.org/2000/svg" xmlns:xlink="http://www.w3.org/1999/xlink" width="281.389" height="281.389" viewBox="0 0 281.389 281.389">
  <defs>
    <clipPath id="clip-path">
      <circle id="Ellipse_15" data-name="Ellipse 15" cx="100.233" cy="100.233" r="100.233" fill="#ff9100"/>
    </clipPath>
  </defs>
  <g id="Group_13" data-name="Group 13" transform="matrix(0.788, -0.616, 0.616, 0.788, -34.192, 128.559)" opacity="0.2">
    <g id="Group_8" data-name="Group 8" transform="translate(30.108 17)" clip-path="url(#clip-path)">
      <g id="Group_7" data-name="Group 7" transform="translate(-84.099 -214.323)">
        <rect id="Rectangle_84" data-name="Rectangle 84" width="3.946" height="486.171" transform="translate(343.775) rotate(45)" fill="#ff9100"/>
        <rect id="Rectangle_85" data-name="Rectangle 85" width="3.946" height="486.171" transform="translate(343.775 18.942) rotate(45)" fill="#ff9100"/>
        <rect id="Rectangle_86" data-name="Rectangle 86" width="3.946" height="486.171" transform="translate(343.775 37.883) rotate(45)" fill="#ff9100"/>
        <rect id="Rectangle_87" data-name="Rectangle 87" width="3.946" height="486.171" transform="translate(343.775 56.825) rotate(45)" fill="#ff9100"/>
        <rect id="Rectangle_88" data-name="Rectangle 88" width="3.946" height="486.171" transform="translate(343.775 75.767) rotate(45)" fill="#ff9100"/>
        <rect id="Rectangle_89" data-name="Rectangle 89" width="3.946" height="486.171" transform="translate(343.775 94.709) rotate(45)" fill="#ff9100"/>
        <rect id="Rectangle_90" data-name="Rectangle 90" width="3.946" height="486.171" transform="translate(343.775 113.65) rotate(45)" fill="#ff9100"/>
        <rect id="Rectangle_91" data-name="Rectangle 91" width="3.946" height="486.171" transform="translate(343.775 132.592) rotate(45)" fill="#ff9100"/>
        <rect id="Rectangle_92" data-name="Rectangle 92" width="3.946" height="486.171" transform="translate(343.775 151.534) rotate(45)" fill="#ff9100"/>
        <rect id="Rectangle_93" data-name="Rectangle 93" width="3.946" height="486.171" transform="translate(343.775 170.476) rotate(45)" fill="#ff9100"/>
        <rect id="Rectangle_94" data-name="Rectangle 94" width="3.946" height="486.171" transform="translate(343.775 189.417) rotate(45)" fill="#ff9100"/>
        <rect id="Rectangle_95" data-name="Rectangle 95" width="3.946" height="486.171" transform="translate(343.775 208.359) rotate(45)" fill="#ff9100"/>
        <rect id="Rectangle_96" data-name="Rectangle 96" width="3.946" height="486.171" transform="translate(343.775 227.301) rotate(45)" fill="#ff9100"/>
        <rect id="Rectangle_97" data-name="Rectangle 97" width="3.946" height="486.171" transform="translate(343.775 246.242) rotate(45)" fill="#ff9100"/>
        <rect id="Rectangle_98" data-name="Rectangle 98" width="3.946" height="486.171" transform="translate(343.775 265.184) rotate(45)" fill="#ff9100"/>
        <rect id="Rectangle_99" data-name="Rectangle 99" width="3.946" height="486.171" transform="translate(343.775 284.126) rotate(45)" fill="#ff9100"/>
        <rect id="Rectangle_100" data-name="Rectangle 100" width="3.946" height="486.171" transform="translate(343.775 303.068) rotate(45)" fill="#ff9100"/>
      </g>
    </g>
  </g>
</svg>
